<svg xmlns="http://www.w3.org/2000/svg" version="1.1" viewBox="0.3294113576412201 0.31480687856674194 463.12554931640625 487.4381408691406" width="464.00" height="488.00">
<path fill="#051a20" fill-opacity="0.992" d="&#10;  M 209.52 249.84&#10;  A 2.03 2.02 46.9 0 0 209.61 247.09&#10;  Q 200.39 236.44 191.10 224.90&#10;  C 186.69 219.42 182.10 214.11 174.13 214.38&#10;  Q 172.59 214.43 163.10 217.65&#10;  A 5.14 4.99 31.8 0 1 162.01 217.89&#10;  C 158.07 218.31 153.95 219.93 149.50 219.97&#10;  C 142.97 220.02 137.14 220.26 130.27 218.76&#10;  Q 120.48 216.61 109.42 210.12&#10;  Q 96.89 202.77 86.64 192.60&#10;  C 70.28 176.36 54.58 158.80 41.46 139.87&#10;  Q 16.49 103.83 3.23 83.51&#10;  Q 1.82 81.34 0.54 78.60&#10;  A 2.20 2.19 39.2 0 1 0.39 77.15&#10;  Q 1.41 72.87 6.04 73.08&#10;  Q 8.45 73.19 10.17 74.91&#10;  Q 58.38 122.88 89.81 155.76&#10;  Q 95.18 161.38 95.91 161.68&#10;  A 5.14 5.05 -28.8 0 0 96.90 161.96&#10;  C 101.42 162.73 105.15 162.03 107.13 157.64&#10;  Q 108.59 154.39 107.76 151.50&#10;  Q 107.37 150.17 104.06 146.49&#10;  Q 82.14 122.19 60.86 97.86&#10;  Q 38.26 72.02 26.53 58.23&#10;  Q 23.46 54.62 26.36 50.79&#10;  A 1.92 1.87 -81.0 0 1 27.19 50.17&#10;  Q 30.17 49.02 33.30 50.30&#10;  A 2.54 2.43 77.2 0 1 34.07 50.81&#10;  Q 77.36 93.54 120.26 137.48&#10;  C 121.59 138.85 123.86 139.86 125.84 139.57&#10;  Q 131.55 138.74 133.53 133.09&#10;  Q 134.88 129.23 132.25 126.25&#10;  Q 128.03 121.46 124.56 117.68&#10;  Q 90.08 80.07 55.77 39.98&#10;  Q 52.79 36.51 50.47 33.61&#10;  A 2.13 2.00 -73.6 0 1 50.13 32.94&#10;  Q 48.71 28.20 52.54 26.54&#10;  Q 56.51 24.83 59.84 28.03&#10;  Q 71.61 39.32 71.94 39.64&#10;  Q 122.36 88.60 145.24 112.00&#10;  Q 151.07 117.97 157.18 113.76&#10;  Q 159.31 112.28 159.97 108.98&#10;  Q 160.80 104.78 158.10 101.67&#10;  Q 152.99 95.78 139.54 81.21&#10;  Q 107.91 46.96 77.15 12.05&#10;  C 74.39 8.92 72.23 5.56 76.04 2.47&#10;  A 1.73 1.73 0.0 0 1 76.95 2.10&#10;  Q 81.41 1.63 82.57 2.40&#10;  Q 89.49 6.97 91.08 8.21&#10;  Q 133.58 41.16 172.05 77.26&#10;  Q 185.03 89.44 196.59 103.00&#10;  Q 211.71 120.74 213.80 141.06&#10;  Q 214.06 143.60 213.99 151.31&#10;  Q 213.95 156.00 212.63 161.54&#10;  Q 210.15 171.99 205.42 180.43&#10;  Q 204.29 182.46 198.33 190.87&#10;  A 2.01 2.00 62.8 0 0 197.96 192.03&#10;  L 197.96 196.86&#10;  A 2.07 2.05 -61.6 0 0 198.29 197.98&#10;  Q 200.74 201.74 204.72 205.30&#10;  Q 216.12 215.51 225.77 224.98&#10;  Q 226.72 225.90 227.04 226.04&#10;  A 1.25 1.21 83.3 0 1 227.59 226.49&#10;  Q 228.72 228.13 230.89 229.25&#10;  A 0.29 0.28 37.1 0 0 231.20 229.21&#10;  Q 254.31 209.26 260.31 204.06&#10;  Q 266.11 199.05 267.97 194.97&#10;  Q 270.32 189.83 270.15 183.53&#10;  Q 270.02 178.97 268.17 176.63&#10;  Q 263.67 170.95 259.28 167.97&#10;  Q 253.93 164.35 250.79 161.90&#10;  A 2.94 2.92 2.3 0 1 250.13 161.19&#10;  Q 247.11 156.66 251.06 152.08&#10;  Q 282.63 115.54 287.04 110.53&#10;  Q 306.09 88.93 320.45 74.20&#10;  Q 336.50 57.73 353.63 43.38&#10;  Q 375.68 24.91 398.18 12.72&#10;  Q 406.48 8.23 418.32 4.04&#10;  Q 423.37 2.26 427.42 1.58&#10;  Q 434.15 0.43 436.77 0.32&#10;  Q 439.20 0.21 445.17 2.43&#10;  A 3.98 3.72 -15.0 0 1 445.92 2.83&#10;  Q 452.05 7.15 455.32 13.89&#10;  Q 459.87 23.27 461.53 32.45&#10;  Q 461.91 34.56 462.92 43.27&#10;  Q 463.61 49.15 463.41 54.20&#10;  Q 462.97 65.13 462.50 68.51&#10;  C 462.09 71.42 461.93 74.73 461.54 77.06&#10;  Q 458.59 94.72 453.87 109.44&#10;  Q 438.27 157.98 408.26 199.51&#10;  Q 395.90 216.61 381.83 233.06&#10;  Q 368.85 248.23 354.77 259.51&#10;  Q 353.65 260.41 350.14 262.30&#10;  C 345.61 264.73 341.21 264.97 338.18 260.03&#10;  Q 337.51 258.94 334.11 251.67&#10;  Q 327.29 237.08 317.95 224.55&#10;  Q 314.37 219.74 310.54 216.24&#10;  Q 303.60 209.88 295.19 208.99&#10;  Q 287.09 208.13 281.02 214.13&#10;  Q 275.25 219.85 269.94 226.71&#10;  C 265.84 232.00 261.73 237.76 257.28 243.09&#10;  Q 255.91 244.72 253.11 248.13&#10;  A 2.80 2.21 29.5 0 0 254.63 251.85&#10;  Q 255.70 252.32 255.96 253.05&#10;  C 256.20 253.74 257.30 254.15 257.98 254.83&#10;  Q 265.57 262.38 272.00 267.66&#10;  A 1.75 1.74 68.6 0 0 272.84 268.03&#10;  Q 275.65 268.49 276.73 267.75&#10;  Q 281.45 264.53 286.47 262.46&#10;  A 2.33 2.28 36.7 0 1 287.66 262.30&#10;  Q 291.03 262.71 292.71 264.30&#10;  Q 307.17 277.92 392.59 359.62&#10;  Q 400.81 367.49 406.39 372.98&#10;  C 418.01 384.43 434.55 399.22 442.84 408.40&#10;  Q 453.18 419.87 455.58 434.82&#10;  Q 456.53 440.79 455.46 449.26&#10;  Q 454.34 458.14 448.66 466.66&#10;  Q 440.58 478.75 427.00 484.41&#10;  Q 424.06 485.64 420.23 486.32&#10;  C 416.30 487.01 413.52 487.74 410.92 487.71&#10;  Q 396.26 487.52 385.05 480.16&#10;  Q 380.46 477.15 371.13 466.35&#10;  Q 322.69 410.26 284.03 364.25&#10;  Q 265.89 342.66 259.37 335.15&#10;  Q 257.74 333.27 242.78 316.14&#10;  A 4.37 4.09 -81.0 0 1 242.23 315.33&#10;  C 238.43 307.97 240.17 305.82 245.04 300.10&#10;  Q 247.34 297.41 247.06 293.77&#10;  Q 246.90 291.68 243.70 288.08&#10;  Q 241.83 285.99 232.68 274.68&#10;  A 1.42 1.42 0.0 0 0 230.48 274.68&#10;  Q 224.92 281.53 216.54 291.26&#10;  C 213.46 294.83 217.92 299.38 220.99 302.73&#10;  Q 224.43 306.50 223.81 310.47&#10;  Q 223.45 312.72 219.37 317.57&#10;  Q 175.70 369.44 164.76 381.77&#10;  C 164.08 382.55 163.88 383.08 163.20 383.88&#10;  Q 150.33 399.02 85.28 475.01&#10;  Q 81.37 479.59 73.22 483.15&#10;  Q 65.23 486.64 56.60 487.55&#10;  Q 47.80 488.47 38.95 485.22&#10;  Q 32.04 482.69 25.58 477.62&#10;  Q 14.31 468.79 10.03 454.97&#10;  Q 5.59 440.64 10.78 426.28&#10;  Q 13.23 419.47 16.69 414.00&#10;  Q 19.28 409.90 25.78 403.89&#10;  Q 36.79 393.71 52.92 377.92&#10;  Q 85.39 346.11 120.08 312.82&#10;  Q 148.66 285.40 168.27 266.53&#10;  C 171.88 263.05 174.71 260.90 179.51 263.24&#10;  Q 182.11 264.50 186.52 267.47&#10;  A 2.48 2.48 0.0 0 0 187.28 267.82&#10;  Q 189.40 268.38 189.42 268.36&#10;  Q 192.60 266.74 193.92 265.43&#10;  Q 203.72 255.67 209.52 249.84&#10;  Z"/>
</svg>